<svg width="94" height="29" viewBox="0 0 94 29" fill="none">
<path d="M7.928 29V27.92H11.888C13.928 27.92 15.788 27.596 17.468 26.948C19.172 26.276 20.648 25.34 21.896 24.14C23.144 22.94 24.104 21.524 24.776 19.892C25.472 18.26 25.82 16.472 25.82 14.528C25.82 12.584 25.472 10.796 24.776 9.164C24.104 7.532 23.144 6.116 21.896 4.916C20.648 3.716 19.172 2.792 17.468 2.144C15.788 1.472 13.928 1.136 11.888 1.136H7.928V0.0559993H11.924C14.108 0.0559993 16.112 0.415999 17.936 1.136C19.76 1.856 21.344 2.864 22.688 4.16C24.032 5.456 25.076 6.98 25.82 8.732C26.564 10.484 26.936 12.416 26.936 14.528C26.936 16.64 26.564 18.584 25.82 20.36C25.076 22.112 24.032 23.636 22.688 24.932C21.344 26.228 19.76 27.236 17.936 27.956C16.112 28.652 14.108 29 11.924 29H7.928ZM5.552 29V0.0559993H6.632V29H5.552ZM0.8 29V0.0559993H1.88V29H0.8ZM3.176 29V0.0559993H4.256V29H3.176ZM7.928 26.624V25.544H11.888C14.168 25.544 16.172 25.076 17.9 24.14C19.628 23.204 20.984 21.908 21.968 20.252C22.952 18.572 23.444 16.664 23.444 14.528C23.444 12.368 22.952 10.46 21.968 8.804C20.984 7.148 19.628 5.852 17.9 4.916C16.172 3.98 14.168 3.512 11.888 3.512H7.928V2.432H11.924C14.396 2.432 16.58 2.96 18.476 4.016C20.372 5.048 21.86 6.476 22.94 8.3C24.02 10.1 24.56 12.176 24.56 14.528C24.56 16.88 24.02 18.968 22.94 20.792C21.86 22.616 20.372 24.044 18.476 25.076C16.58 26.108 14.396 26.624 11.924 26.624H7.928ZM7.928 24.248V23.168H11.888C13.712 23.168 15.308 22.808 16.676 22.088C18.044 21.368 19.112 20.36 19.88 19.064C20.648 17.744 21.032 16.232 21.032 14.528C21.032 12.8 20.648 11.288 19.88 9.992C19.112 8.696 18.044 7.688 16.676 6.968C15.308 6.248 13.712 5.888 11.888 5.888H7.928V4.808H11.924C13.94 4.808 15.716 5.228 17.252 6.068C18.788 6.884 19.988 8.024 20.852 9.488C21.716 10.928 22.148 12.608 22.148 14.528C22.148 16.448 21.716 18.14 20.852 19.604C19.988 21.068 18.788 22.208 17.252 23.024C15.716 23.84 13.94 24.248 11.924 24.248H7.928ZM31.2509 29L41.7269 0.0559993H42.8789L32.4029 29H31.2509ZM26.2109 29L36.6869 0.0559993H37.8029L27.3629 29H26.2109ZM28.7309 29L39.1709 0.0559993H40.3589L29.8829 29H28.7309ZM52.3469 29L42.9509 3.044L43.5269 1.424L53.4989 29H52.3469ZM49.8269 29L41.7269 6.572L42.2669 4.916L50.9789 29H49.8269ZM47.3069 29L40.4669 10.064L41.0429 8.444L48.4589 29H47.3069ZM37.1189 19.424L37.5149 18.344H42.2669L42.6629 19.424H37.1189ZM36.2549 21.836L36.6509 20.756H43.1309L43.5269 21.836H36.2549ZM35.3909 24.212L35.7869 23.132H43.9949L44.3909 24.212H35.3909ZM54.6096 24.212L58.6056 19.532C58.8936 19.196 59.1456 18.92 59.3616 18.704C59.6016 18.488 59.7216 18.26 59.7216 18.02C59.7216 17.636 59.4696 17.444 58.9656 17.444C58.6536 17.444 58.4496 17.516 58.3536 17.66C58.2576 17.804 58.2096 18.02 58.2096 18.308H57.1296C57.1296 17.012 57.7536 16.364 59.0016 16.364C59.5536 16.364 59.9856 16.508 60.2976 16.796C60.6336 17.084 60.8016 17.48 60.8016 17.984C60.8016 18.392 60.6696 18.752 60.4056 19.064C60.1416 19.352 59.8416 19.7 59.5056 20.108L55.9776 24.212H54.6096ZM57.6696 24.212L60.2616 21.332C60.8136 20.708 61.2576 20.144 61.5936 19.64C61.9296 19.112 62.0976 18.584 62.0976 18.056C62.0976 17.144 61.8216 16.424 61.2696 15.896C60.7176 15.344 59.9496 15.068 58.9656 15.068C57.9336 15.068 57.1536 15.368 56.6256 15.968C56.0976 16.544 55.8336 17.36 55.8336 18.416H54.7536C54.7536 17.096 55.1256 16.028 55.8696 15.212C56.6376 14.396 57.6696 13.988 58.9656 13.988C60.1896 13.988 61.1976 14.36 61.9896 15.104C62.7816 15.848 63.1776 16.808 63.1776 17.984C63.1776 18.632 62.9856 19.292 62.6016 19.964C62.2176 20.612 61.8096 21.176 61.3776 21.656L59.1096 24.212H57.6696ZM54.5736 26.732V25.544H62.9616V26.732H54.5736ZM54.5736 29V27.812H62.9616V29H54.5736ZM64.6474 24.212L68.6434 19.532C68.9314 19.196 69.1834 18.92 69.3994 18.704C69.6394 18.488 69.7594 18.26 69.7594 18.02C69.7594 17.636 69.5074 17.444 69.0034 17.444C68.6914 17.444 68.4874 17.516 68.3914 17.66C68.2954 17.804 68.2474 18.02 68.2474 18.308H67.1674C67.1674 17.012 67.7914 16.364 69.0394 16.364C69.5914 16.364 70.0234 16.508 70.3354 16.796C70.6714 17.084 70.8394 17.48 70.8394 17.984C70.8394 18.392 70.7074 18.752 70.4434 19.064C70.1794 19.352 69.8794 19.7 69.5434 20.108L66.0154 24.212H64.6474ZM67.7074 24.212L70.2994 21.332C70.8514 20.708 71.2954 20.144 71.6314 19.64C71.9674 19.112 72.1354 18.584 72.1354 18.056C72.1354 17.144 71.8594 16.424 71.3074 15.896C70.7554 15.344 69.9874 15.068 69.0034 15.068C67.9714 15.068 67.1914 15.368 66.6634 15.968C66.1354 16.544 65.8714 17.36 65.8714 18.416H64.7914C64.7914 17.096 65.1634 16.028 65.9074 15.212C66.6754 14.396 67.7074 13.988 69.0034 13.988C70.2274 13.988 71.2354 14.36 72.0274 15.104C72.8194 15.848 73.2154 16.808 73.2154 17.984C73.2154 18.632 73.0234 19.292 72.6394 19.964C72.2554 20.612 71.8474 21.176 71.4154 21.656L69.1474 24.212H67.7074ZM64.6114 26.732V25.544H72.9994V26.732H64.6114ZM64.6114 29V27.812H72.9994V29H64.6114ZM74.9012 15.608V14.528H83.2532V15.608H74.9012ZM74.9012 17.984V16.904H83.2532V17.984H74.9012ZM78.9332 28.784L81.6332 19.244H82.7492L80.0492 28.784H78.9332ZM76.4852 28.784L79.1852 19.244H80.3012L77.6012 28.784H76.4852ZM84.9039 15.608V14.528H93.2559V15.608H84.9039ZM84.9039 17.984V16.904H93.2559V17.984H84.9039ZM88.9359 28.784L91.6359 19.244H92.7519L90.0519 28.784H88.9359ZM86.4879 28.784L89.1879 19.244H90.3039L87.6039 28.784H86.4879Z" fill="#ff7b10"/>
</svg>
